<svg xmlns="http://www.w3.org/2000/svg" width="330" height="223" fill="none"><path fill="#000" d="M41.9031 200.778c-.616.662-1.2663 1.255-1.9508 1.78-.6616.502-1.3804.947-2.1561 1.335-.7758.365-1.6314.638-2.5669.821-.9126.205-1.9279.308-3.0459.308-1.7569 0-3.3769-.319-4.8599-.958-1.4831-.639-2.7722-1.506-3.8674-2.601-1.0724-1.118-1.9166-2.43-2.5326-3.936-.6161-1.506-.9241-3.126-.9241-4.86 0-1.711.2966-3.32.8899-4.826.616-1.506 1.4716-2.818 2.5668-3.936 1.0952-1.14 2.3957-2.03 3.9016-2.669 1.5059-.662 3.1715-.993 4.9968-.993 1.0952 0 2.0877.092 2.9775.274.9127.183 1.7455.445 2.4984.787.7529.32 1.4488.708 2.0877 1.164a16.197 16.197 0 0 1 1.8139 1.506l-2.7037 3.114c-.9583-.889-1.9736-1.608-3.046-2.156-1.0724-.547-2.2931-.821-3.662-.821-1.1409 0-2.2018.228-3.1829.684-.9583.434-1.7911 1.038-2.4984 1.814-.7073.753-1.2549 1.643-1.6428 2.67-.3879 1.026-.5818 2.133-.5818 3.32 0 1.186.1939 2.304.5818 3.354.3879 1.026.9355 1.927 1.6428 2.703.7073.776 1.5401 1.392 2.4984 1.848.9811.434 2.042.651 3.1829.651 1.4602 0 2.7151-.274 3.7647-.822 1.0495-.57 2.0877-1.334 3.1144-2.293l2.7037 2.738Zm27.7476-8.179c0 1.688-.308 3.285-.9241 4.791-.616 1.506-1.483 2.829-2.601 3.97-1.118 1.118-2.4414 2.008-3.9701 2.67-1.5287.661-3.2171.992-5.0652.992s-3.5366-.319-5.0653-.958c-1.5287-.662-2.8406-1.552-3.9358-2.67-1.0952-1.118-1.9508-2.43-2.5668-3.936-.6161-1.505-.9241-3.103-.9241-4.791 0-1.688.308-3.286.9241-4.791.616-1.506 1.483-2.818 2.601-3.936 1.118-1.141 2.4414-2.042 3.9701-2.704 1.5287-.662 3.2171-.993 5.0652-.993 1.8482 0 3.5366.331 5.0653.993 1.5287.639 2.8406 1.517 3.9358 2.635 1.0952 1.118 1.9508 2.43 2.5668 3.936.6161 1.506.9241 3.103.9241 4.792Zm-4.415.068c0-1.164-.2053-2.259-.616-3.286-.3879-1.049-.9469-1.962-1.677-2.738-.7073-.775-1.5629-1.391-2.5669-1.848-1.0039-.456-2.0991-.684-3.2855-.684-1.1865 0-2.2817.228-3.2856.684-.9811.434-1.8253 1.038-2.5326 1.814-.7073.753-1.2663 1.654-1.677 2.704-.3879 1.027-.5818 2.122-.5818 3.286 0 1.163.1939 2.27.5818 3.319.4107 1.027.9697 1.928 1.677 2.704.7301.776 1.5971 1.392 2.6011 1.848 1.0039.456 2.0991.685 3.2855.685 1.1865 0 2.2703-.217 3.2514-.651 1.0039-.456 1.8595-1.061 2.5668-1.814.7073-.775 1.2549-1.677 1.6428-2.703.4107-1.05.616-2.156.616-3.32Zm20.4198-12.184 10.5412 24.128h-4.4492l-2.43-5.784H77.9892l-2.4642 5.784h-4.3123l10.5412-24.128h3.9016Zm2.1219 14.614-4.1412-9.583-4.1069 9.583h8.2481Zm31.8996 5.681c-.616.662-1.266 1.255-1.951 1.78-.661.502-1.38.947-2.156 1.335-.776.365-1.631.638-2.567.821-.912.205-1.928.308-3.046.308-1.757 0-3.376-.319-4.86-.958-1.483-.639-2.772-1.506-3.867-2.601-1.072-1.118-1.9165-2.43-2.5325-3.936-.6161-1.506-.9241-3.126-.9241-4.86 0-1.711.2966-3.32.8898-4.826.6161-1.506 1.4718-2.818 2.5668-3.936 1.095-1.14 2.396-2.03 3.902-2.669 1.506-.662 3.171-.993 4.996-.993 1.096 0 2.088.092 2.978.274.913.183 1.745.445 2.498.787.753.32 1.449.708 2.088 1.164.639.456 1.244.958 1.814 1.506l-2.704 3.114c-.958-.889-1.973-1.608-3.046-2.156-1.072-.547-2.293-.821-3.662-.821-1.141 0-2.202.228-3.183.684-.958.434-1.791 1.038-2.498 1.814-.707.753-1.255 1.643-1.643 2.67-.388 1.026-.582 2.133-.582 3.32 0 1.186.194 2.304.582 3.354.388 1.026.936 1.927 1.643 2.703.707.776 1.54 1.392 2.498 1.848.981.434 2.042.651 3.183.651 1.46 0 2.715-.274 3.765-.822 1.049-.57 2.088-1.334 3.114-2.293l2.704 2.738Zm20.065-6.263h-11.431v10.096h-4.209v-23.957h4.209v9.959h11.431v-9.959h4.21v23.957h-4.21v-10.096Zm24.182-7.598c0 .479.08.89.24 1.232.16.343.445.662.856.959.433.296 1.015.57 1.745.821.753.251 1.7.513 2.841.787 1.255.32 2.361.673 3.319 1.061.982.388 1.792.867 2.43 1.438.639.547 1.118 1.197 1.438 1.95.342.73.513 1.597.513 2.601 0 1.141-.217 2.157-.65 3.046-.411.89-.993 1.643-1.746 2.259-.752.616-1.654 1.084-2.703 1.403-1.05.32-2.202.48-3.457.48-1.848 0-3.616-.308-5.305-.924-1.688-.639-3.251-1.609-4.689-2.91l2.533-3.011c1.164 1.004 2.339 1.779 3.525 2.327 1.187.525 2.533.787 4.039.787 1.3 0 2.327-.274 3.08-.821.776-.548 1.164-1.289 1.164-2.225 0-.433-.08-.821-.24-1.164-.137-.342-.411-.65-.821-.924-.388-.296-.936-.57-1.643-.821-.685-.251-1.586-.513-2.704-.787-1.278-.297-2.418-.628-3.422-.993-.981-.365-1.814-.821-2.499-1.369-.661-.547-1.175-1.209-1.54-1.985-.342-.775-.513-1.722-.513-2.84 0-1.05.205-1.997.616-2.841.411-.867.97-1.608 1.677-2.225.73-.616 1.597-1.083 2.601-1.403 1.004-.342 2.099-.513 3.285-.513 1.757 0 3.332.262 4.723.787 1.415.502 2.738 1.244 3.97 2.225l-2.258 3.183c-1.096-.799-2.179-1.404-3.252-1.814-1.072-.434-2.156-.651-3.251-.651-1.232 0-2.19.286-2.875.856-.684.548-1.027 1.221-1.027 2.019Zm36.882 1.78c0 1.346-.251 2.533-.753 3.559-.501 1.027-1.186 1.883-2.053 2.567-.867.685-1.882 1.209-3.046 1.574-1.164.343-2.407.514-3.73.514h-4.758v7.7h-4.209v-23.957h9.446c1.391 0 2.646.194 3.764.582 1.141.365 2.099.901 2.875 1.609.799.707 1.403 1.551 1.814 2.532.434.981.65 2.088.65 3.32Zm-4.278.103c0-1.438-.467-2.51-1.403-3.218-.935-.73-2.19-1.095-3.765-1.095h-4.894v8.625h4.894c1.598 0 2.852-.388 3.765-1.164.936-.798 1.403-1.848 1.403-3.148Zm32.581 3.799c0 1.688-.308 3.285-.924 4.791-.616 1.506-1.483 2.829-2.601 3.97-1.118 1.118-2.441 2.008-3.97 2.67-1.529.661-3.217.992-5.065.992-1.848 0-3.537-.319-5.066-.958-1.528-.662-2.84-1.552-3.935-2.67-1.096-1.118-1.951-2.43-2.567-3.936-.616-1.505-.924-3.103-.924-4.791 0-1.688.308-3.286.924-4.791.616-1.506 1.483-2.818 2.601-3.936 1.118-1.141 2.441-2.042 3.97-2.704 1.529-.662 3.217-.993 5.065-.993 1.848 0 3.537.331 5.065.993 1.529.639 2.841 1.517 3.936 2.635 1.095 1.118 1.951 2.43 2.567 3.936.616 1.506.924 3.103.924 4.792Zm-4.415.068c0-1.164-.205-2.259-.616-3.286-.388-1.049-.947-1.962-1.677-2.738-.707-.775-1.563-1.391-2.567-1.848-1.004-.456-2.099-.684-3.285-.684-1.187 0-2.282.228-3.286.684-.981.434-1.825 1.038-2.533 1.814-.707.753-1.266 1.654-1.677 2.704-.387 1.027-.581 2.122-.581 3.286 0 1.163.194 2.27.581 3.319.411 1.027.97 1.928 1.677 2.704.731.776 1.598 1.392 2.602 1.848 1.003.456 2.099.685 3.285.685 1.187 0 2.27-.217 3.251-.651 1.004-.456 1.86-1.061 2.567-1.814.708-.775 1.255-1.677 1.643-2.703.411-1.05.616-2.156.616-3.32Zm29.831 11.944h-4.963l-5.887-8.35h-5.27v8.35h-4.21v-23.957h10.678c1.369 0 2.601.183 3.696.548 1.118.342 2.054.844 2.807 1.506.776.638 1.369 1.437 1.78 2.395.41.936.616 1.985.616 3.149 0 1.004-.149 1.905-.445 2.704-.274.775-.662 1.471-1.164 2.087-.502.594-1.107 1.107-1.814 1.541-.684.41-1.449.73-2.293.958l6.469 9.069Zm-5.031-16.119c0-1.324-.434-2.316-1.301-2.978-.867-.684-2.088-1.027-3.662-1.027h-6.126v8.043h6.16c1.506 0 2.704-.365 3.594-1.095.89-.73 1.335-1.711 1.335-2.943Zm19.464-3.936v20.055h-4.244v-20.055h-7.598v-3.902h19.44v3.902h-7.598Zm12.302-3.902h4.209v23.957h-4.209v-23.957Zm28.453 0v3.833h-13.621v6.537h12.081v3.833h-12.081v9.754h-4.21v-23.957h17.831Z"/><path stroke="#000" stroke-linecap="round" stroke-width="2.077" d="M213.339 177.483h5.6M226.411 181.39l3.108 3.023M216.274 193.332v-7.226M216.298 193.4l3.56 3.463"/><path fill="#000" d="M221.877 121.127c-7.938 9.639-16.065 16.065-29.862 16.065-21.303 0-34.832-16.767-34.015-35.192l-29.5 34.5c11.289 22.175 35.834 34.145 62.381 34.145 29.295 0 46.116-12.663 58.59-29.862l-27.594-19.656ZM243.5.5 220 38c12.296 4.7829 22.434 12.6985 29.5 22.5l-28.568 21.5044C212.596 71.5847 201.096 64.8084 187.5 67l56-66.5Z"/><path fill="#000" fill-rule="evenodd" d="M68.6306 132c-1.6568 0-3-1.343-3-3V3c0-1.6569 1.3432-3 3-3H169.971c1.656 0 3 1.3431 3 3v29.7c0 1.6569-1.344 3-3 3h-63.78v13.08h57.48c1.656 0 3 1.3431 3 3v27.54c0 1.6569-1.344 3-3 3h-57.48V96.3h45.463c3.323 0 3.846.7 3.846 3.2l-53 62.5c-2 0-2-.5-2-2l16.5-28H68.6306Zm34.5604-32.7V79.32h60.48V51.78h-60.48V32.7h66.78V3H68.6306v126H115.5c3 0 4.5 0 4.5 3l-11 18.5 42.5-51-48.309-.2Z" clip-rule="evenodd"/></svg>
